# xmcd
#
# Track frame offsets:
#	150
#	24196
#	47182
#	68926
#	88912
#	116019
#	137893
#	157041
#	183850
#	207429
#	230996
#	280850
#
# Disc length: 3935 seconds
#
# Revision: 1
# Processed by: cddbd v1.5.2PL0 Copyright (c) Steve Scherf et al.
# Submitted via: audiograbber 1.83.01
#
DISCID=b30f5d0c
DTITLE=Haribol.ru - Relax Meditation
DYEAR=1900
DGENRE=
TTITLE0=Namah Om
TTITLE1=Chaitanya-Nityananda
TTITLE2=Gopala
TTITLE3=Jaya Radha Madhava
TTITLE4=Radharani Shyamasundar
TTITLE5=Shyama Kunda
TTITLE6=Jaya Radhe Jaya Krishna
TTITLE7=Om Namo Bhagavate Vasudevaya
TTITLE8=Radha-Madhava
TTITLE9=Om Agyana
TTITLE10=Gauranga
TTITLE11=Namaste
EXTD=
EXTT0=
EXTT1=
EXTT2=
EXTT3=
EXTT4=
EXTT5=
EXTT6=
EXTT7=
EXTT8=
EXTT9=
EXTT10=
EXTT11=
PLAYORDER=
